<svg width="4561" height="440" viewBox="0 0 4561 440" fill="none" xmlns="http://www.w3.org/2000/svg">
<path d="M269.26 281.131C269.26 274.783 267.307 270.551 263.4 268.436C259.657 266.32 254.123 265.262 246.799 265.262H133.518V247.684H246.799C273.492 247.684 286.838 258.833 286.838 281.131C286.838 293.663 283.176 302.697 275.852 308.23C268.527 313.764 258.843 316.531 246.799 316.531H133.518V298.953H246.799C261.773 298.953 269.26 293.012 269.26 281.131ZM123.752 422H106.174V123.172H246.799C257.867 123.172 267.307 126.59 275.119 133.426C282.932 140.099 286.838 148.481 286.838 158.572C286.838 171.919 283.176 181.603 275.852 187.625C268.527 193.484 258.843 196.414 246.799 196.414H133.518V178.836H246.799C261.773 178.836 269.26 172.081 269.26 158.572C269.26 153.038 267.144 148.725 262.912 145.633C258.68 142.378 253.309 140.75 246.799 140.75H123.752V422ZM133.518 213.992H246.799C262.912 213.992 276.503 209.191 287.57 199.588C298.801 189.822 304.416 176.15 304.416 158.572C304.416 144.412 298.557 132.042 286.838 121.463C275.282 110.883 261.936 105.594 246.799 105.594H88.5957V422H71.0176V88.0156H246.799C266.818 88.0156 284.315 95.0957 299.289 109.256C314.426 123.253 321.994 139.692 321.994 158.572C321.994 173.383 318.495 186.323 311.496 197.391C304.66 208.458 295.383 217.003 283.664 223.025C309.217 232.14 321.994 250.695 321.994 278.689C321.994 300.825 314.67 318.566 300.021 331.912C285.373 345.096 267.632 351.688 246.799 351.688H133.518V334.109H246.799C262.912 334.109 276.503 329.308 287.57 319.705C298.801 309.939 304.416 296.268 304.416 278.689C304.416 266.808 300.184 256.31 291.721 247.195C283.257 238.081 270.806 232.791 254.367 231.326C252.74 231.489 250.217 231.57 246.799 231.57H133.518V213.992ZM357.15 158.572C357.15 181.359 349.094 201.948 332.98 220.34C349.094 238.243 357.15 257.693 357.15 278.689C357.15 299.035 352.023 317.589 341.77 334.354C331.678 350.955 318.169 363.895 301.242 373.172C284.478 382.286 266.33 386.844 246.799 386.844H133.518V369.266H246.799C272.189 369.266 293.999 360.802 312.229 343.875C330.458 326.785 339.572 305.057 339.572 278.689C339.572 269.249 337.131 258.833 332.248 247.439C327.528 235.883 320.936 227.094 312.473 221.072C330.539 204.145 339.572 183.312 339.572 158.572C339.572 134.809 330.295 114.22 311.74 96.8047C293.186 79.2266 271.538 70.4375 246.799 70.4375H53.4395V422H35.8613V52.8594H246.799C266.167 52.8594 284.315 57.6608 301.242 67.2637C318.332 76.7038 331.923 89.6432 342.014 106.082C352.105 122.358 357.15 139.855 357.15 158.572ZM353 221.316C367.486 201.948 374.729 181.033 374.729 158.572C374.729 136.6 368.869 116.173 357.15 97.293C345.594 78.25 329.969 63.1947 310.275 52.127C290.581 40.8965 269.423 35.2812 246.799 35.2812H18.2832V422H0.705078V17.7031H246.799C272.515 17.7031 296.522 24.0508 318.82 36.7461C341.281 49.4414 359.104 66.694 372.287 88.5039C385.633 110.151 392.307 133.507 392.307 158.572C392.307 182.498 385.552 203.494 372.043 221.561C385.552 240.278 392.307 259.321 392.307 278.689C392.307 300.499 388.4 320.519 380.588 338.748C372.775 356.814 362.196 371.87 348.85 383.914C335.666 395.958 320.285 405.317 302.707 411.99C285.129 418.663 266.493 422 246.799 422H133.518V404.422H246.799C263.889 404.422 280.246 401.248 295.871 394.9C311.496 388.39 325.087 379.601 336.643 368.533C348.199 357.465 357.395 344.119 364.23 328.494C371.229 312.869 374.729 296.268 374.729 278.689C374.729 270.877 372.857 261.518 369.113 250.613C365.533 239.546 360.161 229.78 353 221.316ZM519.748 422H502.17V17.7031H519.748V422ZM484.592 422H467.014V17.7031H484.592V422ZM449.436 422H431.857V17.7031H449.436V422ZM554.904 334.109H741.916V351.688H554.904V369.266H741.916V386.844H554.904V404.422H741.916V422H537.326V17.7031H741.916V35.2812H554.904V52.8594H741.916V70.4375H554.904V88.0156H741.916V105.594H554.904V175.906H650.852V193.484H554.904V211.062H650.852V228.641H554.904V246.219H650.852V263.797H554.904V334.109ZM908.42 422H890.842V17.7031H908.42V422ZM873.264 422H855.686V17.7031H873.264V422ZM838.107 422H820.529V17.7031H838.107V422ZM802.951 422H785.373V17.7031H802.951V422ZM1036.84 219.852L1140.11 17.7031H1159.64L1056.37 219.852L1159.64 422H1140.11L1036.84 219.852ZM997.531 219.852L1100.8 17.7031H1120.33L1017.06 219.852L1120.33 422H1100.8L997.531 219.852ZM958.225 219.852L1061.5 17.7031H1081.03L977.756 219.852L1081.03 422H1061.5L958.225 219.852ZM918.674 219.852L1022.19 17.7031H1041.72L938.205 219.852L1041.72 422H1022.19L918.674 219.852ZM1368.14 303.348L1375.22 285.77H1435.28L1442.36 303.348H1368.14ZM1354.46 338.504L1361.3 320.926H1448.95L1456.52 338.504H1354.46ZM1340.79 373.66L1347.63 356.082H1462.86L1470.19 373.66H1340.79ZM1197.97 422H1178.93L1338.84 17.7031H1357.88L1517.55 422H1498.75L1348.36 41.3848L1197.97 422ZM1350.56 83.1328L1360.57 105.594L1235.57 422H1216.77L1350.56 83.1328ZM1370.09 129.52L1379.37 153.689L1273.65 422H1254.61L1370.09 129.52ZM1388.64 177.859L1397.92 202.518L1311.25 422H1292.45L1388.64 177.859ZM1631.08 422H1612.03L1452.37 17.7031H1471.16L1631.08 422ZM1433.32 17.7031L1593.23 422H1574.44L1414.52 17.7031H1433.32ZM1395.48 17.7031L1555.39 422H1536.35L1376.68 17.7031H1395.48ZM1825.17 175.906H1795.63C1783.09 175.906 1774.06 172.732 1768.53 166.385C1762.99 159.874 1760.23 151.329 1760.23 140.75C1760.23 117.312 1777.72 105.594 1812.72 105.594C1845.59 105.594 1870.33 110.477 1886.94 120.242L1872.78 130.984C1861.38 125.776 1841.36 123.172 1812.72 123.172C1798.72 123.172 1789.28 124.718 1784.4 127.811C1779.68 130.903 1777.32 135.216 1777.32 140.75C1777.32 146.284 1778.62 150.597 1781.22 153.689C1783.83 156.782 1788.63 158.328 1795.63 158.328H1825.9C1847.87 158.328 1867.65 162.072 1885.23 169.559C1902.97 177.046 1917.53 187.299 1928.93 200.32C1940.32 213.178 1949.03 228.071 1955.05 244.998C1961.07 261.762 1964.08 279.747 1964.08 298.953C1964.08 314.578 1961.89 329.389 1957.49 343.387C1953.1 357.384 1946.42 370.242 1937.47 381.961C1928.68 393.68 1918.02 403.852 1905.49 412.479C1893.12 420.942 1878.31 427.534 1861.06 432.254C1843.97 437.137 1825.41 439.578 1805.39 439.578C1773.98 439.578 1744.52 434.777 1717.01 425.174C1689.67 415.734 1666.88 402.469 1648.65 385.379L1662.81 374.881C1679.42 389.855 1700.17 401.492 1725.07 409.793C1750.14 417.931 1776.91 422 1805.39 422C1827.69 422 1847.79 418.826 1865.7 412.479C1883.76 405.968 1898.57 397.098 1910.13 385.867C1921.85 374.637 1930.8 361.616 1936.98 346.805C1943.33 331.993 1946.51 316.043 1946.51 298.953C1946.51 276.329 1941.95 255.903 1932.83 237.674C1923.72 219.282 1909.8 204.389 1891.09 192.996C1872.53 181.603 1850.56 175.906 1825.17 175.906ZM1795.63 193.484H1823.46C1856.5 193.484 1882.3 203.576 1900.85 223.758C1919.57 243.94 1928.93 269.005 1928.93 298.953C1928.93 329.389 1918.1 354.617 1896.46 374.637C1874.81 394.493 1844.46 404.422 1805.39 404.422C1779.35 404.422 1755.02 400.841 1732.39 393.68C1709.77 386.518 1690.97 376.427 1676 363.406L1689.67 352.42C1703.02 363.325 1719.78 371.788 1739.96 377.811C1760.31 383.833 1782.12 386.844 1805.39 386.844C1839.74 386.844 1865.94 378.624 1884.01 362.186C1902.24 345.747 1911.35 324.669 1911.35 298.953C1911.35 273.562 1903.7 252.566 1888.4 235.965C1873.26 219.363 1851.54 211.062 1823.21 211.062H1795.63C1771.86 211.062 1754.04 204.552 1742.16 191.531C1730.28 178.51 1724.34 161.583 1724.34 140.75C1724.34 119.917 1731.66 102.99 1746.31 89.9688C1761.12 76.9479 1783.26 70.4375 1812.72 70.4375C1833.39 70.4375 1852.59 72.8789 1870.33 77.7617C1888.07 82.4818 1902.72 89.3177 1914.28 98.2695L1900.36 109.012C1880.02 95.0143 1850.8 88.0156 1812.72 88.0156C1788.14 88.0156 1770.15 92.8984 1758.76 102.664C1747.53 112.267 1741.92 124.962 1741.92 140.75C1741.92 156.701 1746.07 169.477 1754.37 179.08C1762.83 188.683 1776.58 193.484 1795.63 193.484ZM1795.63 228.641H1822.48C1846.25 228.641 1864.07 235.232 1875.95 248.416C1887.83 261.6 1893.77 278.445 1893.77 298.953C1893.77 319.786 1886.37 336.714 1871.55 349.734C1856.91 362.755 1834.85 369.266 1805.39 369.266C1784.72 369.266 1765.43 366.906 1747.53 362.186C1729.79 357.303 1715.14 350.385 1703.59 341.434L1717.5 330.691C1737.85 344.689 1767.14 351.688 1805.39 351.688C1829.97 351.688 1847.87 346.886 1859.1 337.283C1870.5 327.518 1876.19 314.741 1876.19 298.953C1876.19 283.165 1871.96 270.47 1863.5 260.867C1855.03 251.102 1841.28 246.219 1822.24 246.219H1795.63C1762.26 246.219 1736.14 236.29 1717.26 216.434C1698.54 196.414 1689.18 171.186 1689.18 140.75C1689.18 110.314 1700.01 85.1673 1721.65 65.3105C1743.3 45.291 1773.65 35.2812 1812.72 35.2812C1838.76 35.2812 1863.01 38.862 1885.47 46.0234C1908.09 53.1849 1926.89 63.276 1941.87 76.2969L1928.2 87.2832C1914.85 76.3783 1898.08 67.9147 1877.9 61.8926C1857.72 55.8704 1835.99 52.8594 1812.72 52.8594C1778.37 52.8594 1752.09 61.0788 1733.86 77.5176C1715.79 93.9564 1706.76 115.034 1706.76 140.75C1706.76 166.303 1714.41 187.381 1729.71 203.982C1745.01 220.421 1766.98 228.641 1795.63 228.641ZM1795.63 263.797H1822.48C1835.01 263.797 1844.05 267.052 1849.58 273.562C1855.12 280.073 1857.88 288.536 1857.88 298.953C1857.88 322.391 1840.39 334.109 1805.39 334.109C1772.35 334.109 1747.53 329.227 1730.93 319.461L1745.09 308.719C1756.48 313.927 1776.58 316.531 1805.39 316.531C1819.39 316.531 1828.75 314.985 1833.47 311.893C1838.35 308.8 1840.79 304.487 1840.79 298.953C1840.79 293.582 1839.41 289.35 1836.64 286.258C1834.04 283.003 1829.16 281.375 1821.99 281.375H1795.63C1773.17 281.375 1752.82 277.713 1734.59 270.389C1716.53 263.064 1701.63 252.973 1689.91 240.115C1678.36 227.257 1669.49 212.365 1663.3 195.438C1657.12 178.51 1654.03 160.281 1654.03 140.75C1654.03 125.125 1656.22 110.314 1660.62 96.3164C1665.01 82.319 1671.6 69.4609 1680.39 57.7422C1689.34 46.0234 1700.01 35.9323 1712.38 27.4688C1724.91 18.8424 1739.72 12.1693 1756.81 7.44922C1774.06 2.56641 1792.7 0.125 1812.72 0.125C1844.13 0.125 1873.51 4.92643 1900.85 14.5293C1928.2 23.9694 1950.98 37.2344 1969.21 54.3242L1955.05 64.8223C1938.45 49.8483 1917.7 38.2923 1892.79 30.1543C1867.89 21.8535 1841.2 17.7031 1812.72 17.7031C1790.42 17.7031 1770.24 20.9583 1752.17 27.4688C1734.27 33.8164 1719.46 42.6055 1707.74 53.8359C1696.18 65.0664 1687.23 78.0872 1680.88 92.8984C1674.7 107.71 1671.6 123.66 1671.6 140.75C1671.6 163.699 1676.24 184.37 1685.52 202.762C1694.8 221.154 1708.96 235.965 1728 247.195C1747.04 258.263 1769.59 263.797 1795.63 263.797ZM2108.62 17.7031H2126.19V422H2108.62V17.7031ZM2073.46 17.7031H2091.04V422H2073.46V17.7031ZM2038.3 17.7031H2055.88V422H2038.3V17.7031ZM2003.15 17.7031H2020.72V422H2003.15V17.7031ZM2386.45 17.7031H2404.03V422H2386.45V17.7031ZM2351.29 17.7031H2368.87V422H2351.29V17.7031ZM2316.13 17.7031H2333.71V422H2316.13V17.7031ZM2280.98 17.7031H2298.56V422H2280.98V17.7031ZM2737.52 227.42L2719.94 198.367V17.7031H2737.52V227.42ZM2772.68 285.037L2755.1 255.496V17.7031H2772.68V285.037ZM2807.83 343.387L2790.26 313.602V17.7031H2807.83V343.387ZM2555.88 212.283L2573.46 241.336V422H2555.88V212.283ZM2520.72 154.666L2538.3 184.207V422H2520.72V154.666ZM2485.57 96.3164L2503.15 126.102V422H2485.57V96.3164ZM2491.67 17.7031H2512.18L2760.71 422H2740.21L2491.67 17.7031ZM2533.18 17.7031H2553.93L2802.22 422H2781.22L2533.18 17.7031ZM2574.44 17.7031H2594.94L2825.41 393.436V17.7031H2842.99V422C2842.99 422 2836.07 422 2822.24 422L2574.44 17.7031ZM2467.99 46.2676V422H2450.41V17.7031C2450.41 17.7031 2457.41 17.7031 2471.41 17.7031L2719.21 422H2698.95L2467.99 46.2676ZM3052.71 175.906H3023.17C3010.63 175.906 3001.6 172.732 2996.07 166.385C2990.53 159.874 2987.77 151.329 2987.77 140.75C2987.77 117.312 3005.26 105.594 3040.26 105.594C3073.13 105.594 3097.87 110.477 3114.47 120.242L3100.31 130.984C3088.92 125.776 3068.9 123.172 3040.26 123.172C3026.26 123.172 3016.82 124.718 3011.94 127.811C3007.22 130.903 3004.86 135.216 3004.86 140.75C3004.86 146.284 3006.16 150.597 3008.76 153.689C3011.37 156.782 3016.17 158.328 3023.17 158.328H3053.44C3075.41 158.328 3095.19 162.072 3112.77 169.559C3130.51 177.046 3145.07 187.299 3156.47 200.32C3167.86 213.178 3176.57 228.071 3182.59 244.998C3188.61 261.762 3191.62 279.747 3191.62 298.953C3191.62 314.578 3189.43 329.389 3185.03 343.387C3180.64 357.384 3173.96 370.242 3165.01 381.961C3156.22 393.68 3145.56 403.852 3133.03 412.479C3120.66 420.942 3105.85 427.534 3088.6 432.254C3071.51 437.137 3052.95 439.578 3032.93 439.578C3001.52 439.578 2972.06 434.777 2944.55 425.174C2917.21 415.734 2894.42 402.469 2876.19 385.379L2890.35 374.881C2906.96 389.855 2927.71 401.492 2952.61 409.793C2977.67 417.931 3004.45 422 3032.93 422C3055.23 422 3075.33 418.826 3093.23 412.479C3111.3 405.968 3126.11 397.098 3137.67 385.867C3149.39 374.637 3158.34 361.616 3164.52 346.805C3170.87 331.993 3174.04 316.043 3174.04 298.953C3174.04 276.329 3169.49 255.903 3160.37 237.674C3151.26 219.282 3137.34 204.389 3118.62 192.996C3100.07 181.603 3078.1 175.906 3052.71 175.906ZM3023.17 193.484H3051C3084.04 193.484 3109.84 203.576 3128.39 223.758C3147.11 243.94 3156.47 269.005 3156.47 298.953C3156.47 329.389 3145.64 354.617 3124 374.637C3102.35 394.493 3071.99 404.422 3032.93 404.422C3006.89 404.422 2982.56 400.841 2959.93 393.68C2937.31 386.518 2918.51 376.427 2903.54 363.406L2917.21 352.42C2930.56 363.325 2947.32 371.788 2967.5 377.811C2987.85 383.833 3009.66 386.844 3032.93 386.844C3067.27 386.844 3093.48 378.624 3111.54 362.186C3129.77 345.747 3138.89 324.669 3138.89 298.953C3138.89 273.562 3131.24 252.566 3115.94 235.965C3100.8 219.363 3079.07 211.062 3050.75 211.062H3023.17C2999.4 211.062 2981.58 204.552 2969.7 191.531C2957.82 178.51 2951.88 161.583 2951.88 140.75C2951.88 119.917 2959.2 102.99 2973.85 89.9688C2988.66 76.9479 3010.8 70.4375 3040.26 70.4375C3060.93 70.4375 3080.13 72.8789 3097.87 77.7617C3115.61 82.4818 3130.26 89.3177 3141.82 98.2695L3127.9 109.012C3107.56 95.0143 3078.34 88.0156 3040.26 88.0156C3015.68 88.0156 2997.69 92.8984 2986.3 102.664C2975.07 112.267 2969.46 124.962 2969.46 140.75C2969.46 156.701 2973.61 169.477 2981.91 179.08C2990.37 188.683 3004.12 193.484 3023.17 193.484ZM3023.17 228.641H3050.02C3073.78 228.641 3091.61 235.232 3103.49 248.416C3115.37 261.6 3121.31 278.445 3121.31 298.953C3121.31 319.786 3113.9 336.714 3099.09 349.734C3084.45 362.755 3062.39 369.266 3032.93 369.266C3012.26 369.266 2992.97 366.906 2975.07 362.186C2957.33 357.303 2942.68 350.385 2931.12 341.434L2945.04 330.691C2965.39 344.689 2994.68 351.688 3032.93 351.688C3057.51 351.688 3075.41 346.886 3086.64 337.283C3098.04 327.518 3103.73 314.741 3103.73 298.953C3103.73 283.165 3099.5 270.47 3091.04 260.867C3082.57 251.102 3068.82 246.219 3049.78 246.219H3023.17C2989.8 246.219 2963.68 236.29 2944.8 216.434C2926.08 196.414 2916.72 171.186 2916.72 140.75C2916.72 110.314 2927.54 85.1673 2949.19 65.3105C2970.84 45.291 3001.19 35.2812 3040.26 35.2812C3066.3 35.2812 3090.55 38.862 3113.01 46.0234C3135.63 53.1849 3154.43 63.276 3169.41 76.2969L3155.73 87.2832C3142.39 76.3783 3125.62 67.9147 3105.44 61.8926C3085.26 55.8704 3063.53 52.8594 3040.26 52.8594C3005.91 52.8594 2979.63 61.0788 2961.4 77.5176C2943.33 93.9564 2934.3 115.034 2934.3 140.75C2934.3 166.303 2941.95 187.381 2957.25 203.982C2972.55 220.421 2994.52 228.641 3023.17 228.641ZM3023.17 263.797H3050.02C3062.55 263.797 3071.59 267.052 3077.12 273.562C3082.65 280.073 3085.42 288.536 3085.42 298.953C3085.42 322.391 3067.93 334.109 3032.93 334.109C2999.89 334.109 2975.07 329.227 2958.47 319.461L2972.63 308.719C2984.02 313.927 3004.12 316.531 3032.93 316.531C3046.93 316.531 3056.29 314.985 3061.01 311.893C3065.89 308.8 3068.33 304.487 3068.33 298.953C3068.33 293.582 3066.95 289.35 3064.18 286.258C3061.58 283.003 3056.69 281.375 3049.53 281.375H3023.17C3000.71 281.375 2980.36 277.713 2962.13 270.389C2944.06 263.064 2929.17 252.973 2917.45 240.115C2905.9 227.257 2897.03 212.365 2890.84 195.438C2884.66 178.51 2881.56 160.281 2881.56 140.75C2881.56 125.125 2883.76 110.314 2888.16 96.3164C2892.55 82.319 2899.14 69.4609 2907.93 57.7422C2916.88 46.0234 2927.54 35.9323 2939.91 27.4688C2952.45 18.8424 2967.26 12.1693 2984.35 7.44922C3001.6 2.56641 3020.24 0.125 3040.26 0.125C3071.67 0.125 3101.05 4.92643 3128.39 14.5293C3155.73 23.9694 3178.52 37.2344 3196.75 54.3242L3182.59 64.8223C3165.99 49.8483 3145.24 38.2923 3120.33 30.1543C3095.43 21.8535 3068.74 17.7031 3040.26 17.7031C3017.96 17.7031 2997.78 20.9583 2979.71 27.4688C2961.81 33.8164 2946.99 42.6055 2935.28 53.8359C2923.72 65.0664 2914.77 78.0872 2908.42 92.8984C2902.24 107.71 2899.14 123.66 2899.14 140.75C2899.14 163.699 2903.78 184.37 2913.06 202.762C2922.34 221.154 2936.5 235.965 2955.54 247.195C2974.58 258.263 2997.12 263.797 3023.17 263.797ZM3336.15 17.7031H3353.73V422H3336.15V17.7031ZM3301 17.7031H3318.58V422H3301V17.7031ZM3265.84 17.7031H3283.42V422H3265.84V17.7031ZM3230.69 17.7031H3248.26V422H3230.69V17.7031ZM3723.12 210.818H3740.7V422H3723.12V210.818ZM3793.43 210.818H3811.01V422H3793.43V210.818ZM3758.27 210.818H3775.85V422H3758.27V210.818ZM3705.54 210.818V422C3674.61 433.719 3642.55 439.578 3609.35 439.578C3580.54 439.578 3552.95 434.288 3526.58 423.709C3500.22 413.13 3477.02 398.481 3457 379.764C3436.98 360.883 3420.95 337.609 3408.91 309.939C3397.03 282.107 3391.09 252.078 3391.09 219.852C3391.09 190.066 3396.86 161.665 3408.42 134.646C3420.14 107.465 3435.76 84.1094 3455.29 64.5781C3474.99 44.8841 3498.35 29.2591 3525.36 17.7031C3552.54 5.98438 3581.03 0.125 3610.81 0.125C3647.92 0.125 3682.43 8.7513 3714.33 26.0039C3746.23 43.2565 3772.27 66.694 3792.45 96.3164L3777.8 105.838C3759.25 78.6569 3735.24 57.1725 3705.78 41.3848C3676.49 25.597 3644.83 17.7031 3610.81 17.7031C3583.47 17.7031 3557.26 23.0742 3532.2 33.8164C3507.3 44.3958 3485.81 58.7188 3467.75 76.7852C3449.68 94.8516 3435.28 116.417 3424.53 141.482C3413.95 166.385 3408.66 192.508 3408.66 219.852C3408.66 249.311 3414.12 276.818 3425.02 302.371C3436.09 327.924 3450.74 349.327 3468.97 366.58C3487.36 383.833 3508.68 397.423 3532.93 407.352C3557.18 417.117 3582.41 422 3608.62 422C3636.12 422 3662.57 417.687 3687.96 409.061V392.215C3663.71 400.353 3638.24 404.422 3611.54 404.422C3592.18 404.422 3573.3 401.736 3554.9 396.365C3536.68 390.831 3519.75 382.775 3504.12 372.195C3488.66 361.453 3475.07 348.758 3463.35 334.109C3451.8 319.298 3442.68 302.127 3436.01 282.596C3429.5 262.902 3426.24 241.987 3426.24 219.852C3426.24 186.486 3434.46 155.643 3450.9 127.322C3467.5 99.002 3489.96 76.6224 3518.28 60.1836C3546.6 43.582 3577.45 35.2812 3610.81 35.2812C3642.06 35.2812 3671.12 42.6055 3697.97 57.2539C3724.83 71.7396 3746.72 91.4336 3763.64 116.336L3749 125.857C3733.7 103.396 3713.84 85.6556 3689.43 72.6348C3665.17 59.4512 3638.97 52.8594 3610.81 52.8594C3588.19 52.8594 3566.54 57.2539 3545.87 66.043C3525.2 74.832 3507.38 86.7135 3492.4 101.688C3477.59 116.499 3465.79 134.24 3457 154.91C3448.21 175.581 3443.82 197.228 3443.82 219.852C3443.82 240.197 3446.75 259.321 3452.61 277.225C3458.63 294.965 3466.85 310.509 3477.27 323.855C3487.85 337.039 3500.14 348.432 3514.13 358.035C3528.13 367.475 3543.35 374.637 3559.79 379.52C3576.39 384.402 3593.4 386.844 3610.81 386.844C3637.83 386.844 3663.55 382.286 3687.96 373.172V355.594C3663.87 364.871 3638.73 369.51 3612.52 369.51C3592.66 369.51 3573.7 366.173 3555.64 359.5C3537.57 352.664 3521.46 343.061 3507.3 330.691C3493.3 318.322 3482.15 302.534 3473.85 283.328C3465.55 264.122 3461.4 242.964 3461.4 219.852C3461.4 192.833 3468.07 167.85 3481.42 144.9C3494.76 121.951 3512.91 103.803 3535.86 90.457C3558.81 77.1107 3583.79 70.4375 3610.81 70.4375C3636.04 70.4375 3659.48 76.2969 3681.12 88.0156C3702.93 99.7344 3720.68 115.685 3734.35 135.867L3719.7 145.389C3707.65 127.811 3692.03 113.895 3672.82 103.641C3653.78 93.224 3633.11 88.0156 3610.81 88.0156C3586.89 88.0156 3564.83 93.9564 3544.65 105.838C3524.47 117.557 3508.44 133.507 3496.55 153.689C3484.84 173.872 3478.98 195.926 3478.98 219.852C3478.98 236.453 3481.34 251.915 3486.06 266.238C3490.78 280.561 3497.29 292.931 3505.59 303.348C3513.89 313.764 3523.57 322.635 3534.64 329.959C3545.87 337.283 3557.92 342.817 3570.77 346.561C3583.63 350.141 3596.98 351.932 3610.81 351.932C3638.32 351.932 3664.04 346.479 3687.96 335.574V318.729C3664.85 328.982 3639.87 334.109 3613.01 334.109C3597.55 334.109 3582.98 331.749 3569.31 327.029C3555.64 322.309 3543.27 315.392 3532.2 306.277C3521.29 297.163 3512.59 285.2 3506.08 270.389C3499.73 255.415 3496.55 238.569 3496.55 219.852C3496.55 204.389 3499.57 189.66 3505.59 175.662C3511.61 161.502 3519.75 149.295 3530 139.041C3540.26 128.787 3552.38 120.649 3566.38 114.627C3580.54 108.605 3595.35 105.594 3610.81 105.594C3630.18 105.594 3648.17 110.151 3664.77 119.266C3681.37 128.217 3694.88 140.424 3705.29 155.887L3690.89 165.408C3682.1 152.387 3670.63 142.133 3656.47 134.646C3642.47 126.997 3627.25 123.172 3610.81 123.172C3584.12 123.172 3561.33 132.612 3542.45 151.492C3523.57 170.372 3514.13 193.159 3514.13 219.852C3514.13 236.29 3516.82 250.857 3522.19 263.553C3527.56 276.085 3534.88 286.176 3544.16 293.826C3553.6 301.313 3564.02 307.01 3575.41 310.916C3586.97 314.66 3599.34 316.531 3612.52 316.531C3639.54 316.531 3664.69 310.916 3687.96 299.686V210.818H3705.54ZM4240.94 17.7031H4258.52V422H4240.94V17.7031ZM3854.22 17.7031H3871.8V422H3854.22V17.7031ZM4205.78 17.7031H4223.36V422H4205.78V17.7031ZM4170.63 17.7031H4188.21V422H4170.63V17.7031ZM4135.47 17.7031H4153.05V422H4135.47V263.553H3977.27V422H3959.69V17.7031H3977.27V175.662H4135.47V17.7031ZM3924.53 17.7031H3942.11V422H3924.53V17.7031ZM3889.38 17.7031H3906.96V422H3889.38V17.7031ZM4135.47 245.975V228.396H3977.27V245.975H4135.47ZM4135.47 210.818V193.24H3977.27V210.818H4135.47ZM4297.09 35.2812V17.7031H4560.76V35.2812H4297.09ZM4297.09 70.4375V52.8594H4560.76V70.4375H4297.09ZM4297.09 105.594V88.0156H4560.76V105.594H4490.45V422H4472.87V105.594H4455.29V422H4437.72V105.594H4420.14V422H4402.56V105.594H4384.98V422H4367.4V105.594H4297.09Z" fill="#FFC800"/>
</svg>
